<?xml version="1.0" encoding="utf-8"?>
<!-- Generator: Adobe Illustrator 23.0.4, SVG Export Plug-In . SVG Version: 6.00 Build 0)  -->
<svg version="1.1" id="Layer_1" xmlns="http://www.w3.org/2000/svg" xmlns:xlink="http://www.w3.org/1999/xlink" x="0px" y="0px"
	 viewBox="0 0 2100 2100" enable-background="new 0 0 2100 2100" xml:space="preserve">
<linearGradient id="SVGID_1_" gradientUnits="userSpaceOnUse" x1="1050" y1="1282.2607" x2="1050" y2="601.058">
	<stop  offset="0" style="stop-color:#FFCC33"/>
	<stop  offset="1" style="stop-color:#FF6633"/>
</linearGradient>
<path fill="url(#SVGID_1_)" d="M1504.9,1368.9l-368.8-637.8H963.7l-368.6,637.8l126.9-64v-20.9c0-9.3,7.5-16.7,16.7-16.7h2
	c9.3,0,16.7,7.4,16.7,16.7v3l84.8-42.7v-25.4c0-9.1,7.5-16.5,16.7-16.5h2c9.3,0,16.7,7.4,16.7,16.5v7.5l99.7-50.1
	c0.4-27.6,1.2-55,2-82.4c0.8-23.6,1.6-47.9,11.7-70.1c10.1-22.2,31.2-42.3,58.8-47.1c27.6,4.8,48.7,25,58.8,47.1
	c10.1,22.2,10.9,46.5,11.7,70.1c0.8,27.4,1.6,54.8,2,82.2l99.7,50.3v-7.5c0-9.1,7.5-16.5,16.7-16.5h2c9.3,0,16.7,7.4,16.7,16.5v25.4
	l84.8,42.7v-3c0-9.3,7.5-16.7,16.7-16.7h2c9.3,0,16.7,7.4,16.7,16.7v20.9L1504.9,1368.9z"/>
</svg>
