<svg xmlns="http://www.w3.org/2000/svg" xmlns:xlink="http://www.w3.org/1999/xlink" viewBox="0 0 366.4 366.4"><defs><linearGradient id="a" x1="37.46" y1="221.96" x2="333.79" y2="518.29" gradientTransform="matrix(1, 0, 0, -1, 0, 550.9)" gradientUnits="userSpaceOnUse"><stop offset="0" stop-color="#ee2a7b"/><stop offset="1" stop-color="#091433"/></linearGradient><linearGradient id="b" x1="32.1" y1="287.56" x2="143.1" y2="625.56" xlink:href="#a"/><linearGradient id="c" x1="112.2" y1="261.25" x2="223.2" y2="599.25" xlink:href="#a"/><linearGradient id="d" x1="199.38" y1="232.62" x2="310.38" y2="570.62" xlink:href="#a"/><linearGradient id="e" x1="155.76" y1="246.95" x2="266.76" y2="584.95" xlink:href="#a"/><linearGradient id="f" x1="263.07" y1="211.71" x2="374.07" y2="549.71" xlink:href="#a"/><linearGradient id="g" x1="298" y1="200.24" x2="409" y2="538.24" xlink:href="#a"/></defs><title>mars</title><circle cx="183.2" cy="183.2" r="183.2" style="fill:url(#a)"/><path d="M12.5,249.7,58.3,138.8s-14,64.3,12,44.5c17.5-13.4,62.5-116,90.1-181.7a181.23,181.23,0,0,0-26.2,5.2C108.1,62.2,73.3,130,73.3,130s12-74.9-16-24.6C38.7,138.8,16.6,189.8,3.9,220.3A176.84,176.84,0,0,0,12.5,249.7Z" style="fill:url(#b)"/><path d="M102.4,347.6C120.3,293.8,161,176.3,188.3,130c26.6-45.1,60.9-90.2,77-110.6-3.4-1.7-6.9-3.3-10.5-4.9-18.8,32.4-50.5,84.3-61.5,86.9-11.6,2.7,21.1-60,39.8-94.5-5.6-1.6-11.3-2.9-17.1-4-5.8,19.9-13,41.5-17.7,44.1-5.1,2.8-.8-23.2,3.8-46.1C198.6.5,195,.3,191.4.1c-10.4,46.4-30.8,129.8-49.1,163S72.3,264.9,43.8,302c2.4,2.8,4.8,5.5,7.4,8.1,17.3-24.4,40.5-54.8,52.1-60,14-6.3-6.8,51.2-20.6,86.2A167.2,167.2,0,0,0,102.4,347.6Z" style="fill:url(#c)"/><path d="M198.5,365.8c9.8-52.5,31.3-160.8,49.8-207.7,17.2-43.4,44-86.9,58.9-109.7a185,185,0,0,0-18.3-14.8C273.7,67.2,222.8,181.3,206,240.8c-12.6,44.6-22.3,94.7-27.8,125.5,1.7,0,3.3.1,5,.1C188.4,366.4,193.4,366.2,198.5,365.8Z" style="fill:url(#d)"/><path d="M201.3,158.1c-10.9,6.2-56.1,139.7-75.8,199a190,190,0,0,0,23.6,6.1C169.2,297,212.1,151.9,201.3,158.1Z" style="fill:url(#e)"/><path d="M299.3,324.9c4.9-58.9,16.2-167.7,38.1-240.7A171.44,171.44,0,0,0,322,63.7c-14.3,51.2-42.1,148-60.7,198.6-15.8,43-27.5,78-34.3,98.8a181.27,181.27,0,0,0,24-7.7c8.5-35.1,25.7-101.8,37.3-116.3s-1,59.9-8.8,101.9A169.62,169.62,0,0,0,299.3,324.9Z" style="fill:url(#f)"/><path d="M358.8,130.9c-6.8,27.2-16.1,66.8-18.5,89.4-2.3,21,12.7-11.4,26-43A182.83,182.83,0,0,0,358.8,130.9Z" style="fill:url(#g)"/></svg>