<svg xmlns="http://www.w3.org/2000/svg" xmlns:xlink="http://www.w3.org/1999/xlink" viewBox="0 0 508.96 688.03"><defs><linearGradient id="a" x1="144.23" y1="326.16" x2="421.14" y2="603.07" gradientUnits="userSpaceOnUse"><stop offset="0" stop-color="#ee2a7b"/><stop offset="1" stop-color="#091433"/></linearGradient><linearGradient id="b" x1="130.87" y1="320.55" x2="182.91" y2="479" xlink:href="#a"/><linearGradient id="c" x1="217.31" y1="339.8" x2="309.49" y2="620.5" xlink:href="#a"/><linearGradient id="d" x1="303.72" y1="385.92" x2="390.51" y2="650.21" xlink:href="#a"/><linearGradient id="e" x1="248.33" y1="498.28" x2="351.38" y2="812.05" xlink:href="#a"/><linearGradient id="f" x1="375.35" y1="429.76" x2="432.74" y2="604.5" xlink:href="#a"/></defs><title>bfr</title><path d="M254.48,688a59.73,59.73,0,0,1-32.1-9.34L27.7,555A60.11,60.11,0,0,1,5.36,479.6L211.68,27.51a47,47,0,0,1,85.6,0L503.61,479.6A60.1,60.1,0,0,1,481.26,555L286.59,678.69A59.79,59.79,0,0,1,254.48,688Z" style="fill:#ec2a7a"/><path d="M93.56,555.48c-8.42,0-20.44-1.25-29.88-7.24l-.64-.4L39.73,533A34,34,0,0,1,27.08,490.4L233.41,38.31a21,21,0,0,1,38.3,0L478,490.4A34,34,0,0,1,465.4,533l-27.6,17.54h-.95a49.64,49.64,0,0,1-18.07,3.89,27.39,27.39,0,0,1-11.95-2.51h-7.38v-5.09a20.08,20.08,0,0,0-10.39-2.91,20.66,20.66,0,0,0-3.34.29l-6.61,1.07-3.51-5.71a36.8,36.8,0,0,0-31.54-17.65,37.53,37.53,0,0,0-9.95,1.36l-11,3.05L321.54,515c0-.26-.09-.53-.13-.78l-.29-1.62.1-1.27c.16-2,.23-3.73.23-5.38a68.71,68.71,0,0,0-3.8-22.64l-1.73-4.45c-.4-.87-.78-1.71-1.15-2.54-.08-.17-.16-.33-.23-.49-37.68-83.36-54.44-144.22-62-186.61-7.54,42.4-24.31,103.27-62,186.65a4.54,4.54,0,0,1-.21.45c-.37.85-.76,1.69-1.15,2.54l-1.79,4.62A68.75,68.75,0,0,0,183.67,506c0,.14,0,.26,0,.39l.17,6.3-5,3a47.28,47.28,0,0,0-20.08,24.51L155,550.69,145,545.78a18,18,0,0,0-15.29-.27v.07l-4.26,2.62L123.19,550h-1C115.07,553.41,104.45,555.48,93.56,555.48Z" style="fill:#1b1639"/><path d="M459.47,524.58l-29.3,18.62-14.08,8.95-4.4,2.8-24.33,15.46-25.51,16.21-54.77,34.81L277.9,640l-13.11,8.33A23.85,23.85,0,0,1,242.25,650a24.81,24.81,0,0,1-3-1.64l-22.7-14.43-27-17.16-23-14.62-32.32-20.54-11-6.95-14.53-9.24L81.48,548.06q-.35-6.91-.35-13.93A277.29,277.29,0,0,1,87,477.43h0A276.58,276.58,0,0,1,164.2,336.48h0a276.35,276.35,0,0,1,111.48-66.64q8.46-2.62,17.14-4.71,6.62-1.61,13.35-2.87,9.15-1.72,18.5-2.85h0a280.24,280.24,0,0,1,32.58-2h2.9l4.57,10,22,48.2L398,340.3l25.63,56.16,20.75,45.46,24,52.63A23.85,23.85,0,0,1,459.47,524.58Z" style="fill:url(#a)"/><path d="M218,295.3c-31.46,71.63-67.25,147-83.68,159.56-32.59,24.82-15-55.77-15-55.77L87,477.42a275.5,275.5,0,0,1,54-115.16c-.8,12.66-2.77,25.17-2.86,25.78.33-.65,11.23-21.89,26.09-51.56h0A277,277,0,0,1,218,295.3Z" style="fill:url(#b)"/><path d="M364.74,267.47c-22.41,29.34-55.61,75-82.52,120.59-27.94,47.4-67.1,154.34-92.72,228.66l-23-14.62c12.43-35.61,21.43-69,9.18-63.52-9.6,4.31-25.54,22.39-41.5,43l-11-6.95c35.94-47.5,82.6-111.08,101.33-145.06,17.83-32.34,37.24-102.68,51.12-159.72q8.46-2.62,17.14-4.71c-1.54,12.49-1.47,20.78,1.92,18.92,3.16-1.75,7.22-10.34,11.43-21.79q9.15-1.72,18.5-2.85c-22.51,42.86-48.16,95.6-36.19,92.82,12.27-2.9,45.11-54.78,68.78-94.78h2.9Z" style="fill:url(#c)"/><path d="M398,340.3c-14.23,25.08-29.1,54.05-40.56,83-17.22,43.66-36.52,129.77-50.34,198.15L277.9,640c6.84-34.45,15.84-75.32,26.5-113.05,15.75-55.76,55.38-149.77,82.34-211.26Z" style="fill:url(#d)"/><path d="M242.25,650a24.81,24.81,0,0,1-3-1.64l-22.7-14.43c27.7-82,70.39-204,82-210.6C310.57,416.36,269.23,559.87,242.25,650Z" style="fill:url(#e)"/><path d="M423.61,396.46l20.75,45.46C438.58,476.16,433.9,511,430.17,543.2l-14.08,8.95-4.4,2.8c2.83-25,2.71-41.23-4.14-32.66-6,7.45-13.11,25.9-20.19,48.12l-25.51,16.21q5.58-15.63,11.86-32.75C388.17,514.53,407.07,452.9,423.61,396.46Z" style="fill:url(#f)"/><path d="M494.51,483.75,288.18,31.66a37,37,0,0,0-67.4,0L14.45,483.75a50.07,50.07,0,0,0,18.61,62.77L227.74,670.25a49.84,49.84,0,0,0,53.48,0L475.9,546.52A50.07,50.07,0,0,0,494.51,483.75ZM460,524.58l-25.14,16h0c-15.17,6.48-22.65,3.34-25.43,1.38,0,0,0,0,0,0a7.28,7.28,0,0,1-1.3-1.13v0a29.89,29.89,0,0,0-19.07-6.84,31,31,0,0,0-4.94.41,47,47,0,0,0-52.67-20.69c-.07-.52-.17-1-.26-1.55.16-2,.26-4.09.26-6.16a78.72,78.72,0,0,0-6.23-30.79h0c0-.13-.1-.25-.16-.38-.42-.92-.84-1.84-1.25-2.76-.05-.09-.09-.18-.13-.27C233.07,271.31,265,206.11,252.56,206.11s19.49,65.2-71.11,265.64c0,.09-.08.18-.13.27-.41.92-.83,1.84-1.25,2.76-.06.13-.11.25-.16.38h0A78.72,78.72,0,0,0,173.67,506c0,.38,0,.75,0,1.13a57.24,57.24,0,0,0-24.33,29.71A28,28,0,0,0,119.7,540h0c-9.65,6-36.7,8.65-50.66-.2l-.63-.39L45.09,524.58a23.85,23.85,0,0,1-8.91-30L242.51,42.46a11,11,0,0,1,20.1,0l98.12,215,108.21,237.1A23.85,23.85,0,0,1,460,524.58Z" style="fill:#221e4c"/><path d="M341.09,521.61a30.59,30.59,0,0,0,10.2,60.06,30.59,30.59,0,1,1-10.2-60.06Z" style="fill:#f2f2f2;opacity:0.4"/><path d="M298.33,620.53a30.59,30.59,0,0,0-49.55-12.41,28.72,28.72,0,0,0-2.49,2.56,30.63,30.63,0,0,0-7.06,24.62,30.49,30.49,0,0,1,2.64-25.83c.38-.63.77-1.23,1.18-1.82a23.08,23.08,0,0,0-35.25,9.12,23.07,23.07,0,0,1,37.71-12.19,30.59,30.59,0,0,1,52.82,15.95Z" style="fill:#f2f2f2;opacity:0.4"/><path d="M230,536.22a30.49,30.49,0,0,1-14.11,26.09,30.59,30.59,0,0,0,9.48-25.92,29.13,29.13,0,0,0-1-4.93,30.59,30.59,0,0,0-45.83-17.27,30.6,30.6,0,0,1,50.95,16.66A29.8,29.8,0,0,1,230,536.22Z" style="fill:#f2f2f2;opacity:0.4"/><path d="M289.93,540.09a20.93,20.93,0,0,0-34.54,3.46,20.23,20.23,0,0,0-1.92,5c-.09.35-.16.71-.23,1.07a20.79,20.79,0,0,0,2.3,14,20.86,20.86,0,0,1-4.47-17.2c0-.21.08-.41.13-.62A30.55,30.55,0,0,0,230,536.22a29.8,29.8,0,0,0-.52-5.37,30.63,30.63,0,0,1,23.54,9.83,20.93,20.93,0,0,1,36.88-.59Z" style="fill:#f2f2f2;opacity:0.4"/><path d="M268.94,185.59l-4.16-60.17a9.76,9.76,0,0,0-2.56-6,9.76,9.76,0,0,1-2.21-4c-1.16-4.11-4-12.58-7.45-12.58s-6.28,8.47-7.44,12.58a9.89,9.89,0,0,1-2.22,4,9.88,9.88,0,0,0-2.56,6l-4.15,60.17a4.57,4.57,0,0,0,.83,2.95l3.09,4.35a4.52,4.52,0,0,0,2.18,1.65l10.27,1.14,10.27-1.14a4.52,4.52,0,0,0,2.18-1.65l3.1-4.35A4.57,4.57,0,0,0,268.94,185.59Z" style="fill:#fff176"/><path d="M244.37,137.13l-2.82,45.65a1.86,1.86,0,0,1-1.18,1.63l-12.76,5a1.88,1.88,0,0,1-2.53-1.45l-.75-4.8A11.49,11.49,0,0,1,225,177l15.57-38a1.87,1.87,0,0,1,1.17-1.08Z" style="fill:#ffc269"/><path d="M260.76,137.13l2.81,45.65a1.88,1.88,0,0,0,1.18,1.63l12.76,5A1.87,1.87,0,0,0,280,188l.76-4.8a11.4,11.4,0,0,0-.72-6.14l-15.56-38a1.87,1.87,0,0,0-1.17-1.08Z" style="fill:#ffc269"/><path d="M244.37,136l.58-14.78a6.39,6.39,0,0,0-3.6,5c.9-1.53,2.38-1.12,2.47.14S244.37,136,244.37,136Z" style="fill:#ffca28"/><path d="M260.76,136l-.59-14.78a6.41,6.41,0,0,1,3.61,5c-.9-1.53-2.39-1.12-2.48.14S260.76,136,260.76,136Z" style="fill:#ffca28"/><path d="M241.35,157.21l-2.48,24.51-11.44,5.13s6.33-4.18,9.32-8.93S241.35,157.21,241.35,157.21Z" style="fill:#fff176"/><path d="M263.78,157.21l2.48,24.51,11.44,5.13s-6.34-4.18-9.32-8.93S263.78,157.21,263.78,157.21Z" style="fill:#fff176"/><path d="M257.09,119.49c-1.21-1.78-3-3.86-4.53-3.86s-3.32,2.08-4.52,3.86a4.76,4.76,0,0,0-.18,5.07l.15.26c.15-1.42,1.62-2.68,2.85-3.5a3.07,3.07,0,0,1,3.41,0c1.22.82,2.69,2.08,2.84,3.5l.16-.26A4.76,4.76,0,0,0,257.09,119.49Z" style="fill:#ffc269"/><path d="M252.56,200.28h0a1.09,1.09,0,0,1-1.08-1.08V178.3a1.09,1.09,0,0,1,1.08-1.09h0a1.08,1.08,0,0,1,1.08,1.09v20.9A1.08,1.08,0,0,1,252.56,200.28Z" style="fill:#ffc269"/><polygon points="305.92 224.58 311.13 227.43 305.92 230.28 303.07 235.49 300.23 230.28 295.02 227.43 300.23 224.58 303.07 219.38 305.92 224.58" style="fill:#fff"/><polygon points="239.03 214.05 244.23 216.9 239.03 219.75 236.18 224.95 233.33 219.75 228.12 216.9 233.33 214.05 236.18 208.84 239.03 214.05" style="fill:#fff"/><polygon points="216.69 268.38 221.9 271.23 216.69 274.08 213.85 279.29 211 274.08 205.79 271.23 211 268.38 213.85 263.18 216.69 268.38" style="fill:#fff"/><polygon points="164.19 280.05 169.39 282.9 164.19 285.75 161.34 290.95 158.49 285.75 153.28 282.9 158.49 280.05 161.34 274.84 164.19 280.05" style="fill:#fff"/><polygon points="111.91 389.38 117.12 392.23 111.91 395.08 109.06 400.29 106.22 395.08 101.01 392.23 106.22 389.38 109.06 384.18 111.91 389.38" style="fill:#fff"/><polygon points="62.91 469.05 68.12 471.9 62.91 474.75 60.06 479.95 57.22 474.75 52.01 471.9 57.22 469.05 60.06 463.84 62.91 469.05" style="fill:#fff"/><polygon points="75.92 515.72 81.13 518.57 75.92 521.41 73.07 526.62 70.22 521.41 65.02 518.57 70.22 515.72 73.07 510.51 75.92 515.72" style="fill:#fff"/><polygon points="290.95 158.54 296.16 161.38 290.95 164.23 288.11 169.44 285.26 164.23 280.05 161.38 285.26 158.54 288.11 153.33 290.95 158.54" style="fill:#fff"/><path d="M312,400.22v-5.44a7.55,7.55,0,0,0-7.53-7.53H289.56a7.34,7.34,0,0,0-5.32,2.21,7.54,7.54,0,0,0-1.37,1.84,7.49,7.49,0,0,0-1.36-1.84,7.34,7.34,0,0,0-5.32-2.21H261.32a7.38,7.38,0,0,0-5.32,2.21,7.28,7.28,0,0,0-1.45,2,7.58,7.58,0,0,0-1.37-1.95,7.3,7.3,0,0,0-5.36-2.29H233a7.3,7.3,0,0,0-5.36,2.29,8.09,8.09,0,0,0-1.31,1.81,7.16,7.16,0,0,0-1.38-1.89,7.34,7.34,0,0,0-5.32-2.21H204.72a7.55,7.55,0,0,0-7.53,7.53v4.67h2.58l-.37.35a7.38,7.38,0,0,0-2.21,5.32v12.29h29.93v-2.87c.14.18.3.36.47.54a7.23,7.23,0,0,0,5.37,2.33h14.86a7.25,7.25,0,0,0,5.37-2.33,6.94,6.94,0,0,0,.61-.73v3.06H312V407.28h-4.89a7.46,7.46,0,0,0,2.68-1.74A7.34,7.34,0,0,0,312,400.22ZM225.43,405v2.31h-3.21a7.5,7.5,0,0,0,2.69-1.74A7,7,0,0,0,225.43,405ZM256,399.8a6.46,6.46,0,0,0-.65.75v-1.1h1Zm22.83,7.48a7.46,7.46,0,0,0,2.68-1.74A7.23,7.23,0,0,0,282,405a1,1,0,0,0,0,.17v2.16Zm5.41-7.48c-.19.19-.36.38-.53.58a.86.86,0,0,0,0-.16v-.77h.89C284.48,399.56,284.36,399.68,284.24,399.8Z" style="fill:#221e4c"/><path d="M204.72,390.08h14.87a4.71,4.71,0,0,1,4.69,4.7v5.44a4.69,4.69,0,0,1-4.69,4.69H204.72c-.16,0-.23.07-.23.21v4.76c0,.16.07.24.23.24h19.56v4.45H200v-9.45a4.71,4.71,0,0,1,4.69-4.7h14.87c.16,0,.24-.06.24-.2v-5.44a.21.21,0,0,0-.24-.24H204.72c-.16,0-.23.08-.23.24v1.83H200v-1.83a4.71,4.71,0,0,1,4.69-4.7Z" style="fill:#f2f2f2"/><path d="M233,390.08h14.86a4.47,4.47,0,0,1,3.32,1.43,4.68,4.68,0,0,1,1.37,3.37v14.86a4.73,4.73,0,0,1-1.37,3.39,4.44,4.44,0,0,1-3.32,1.44H233a4.42,4.42,0,0,1-3.32-1.44,4.74,4.74,0,0,1-1.38-3.39V394.88a4.69,4.69,0,0,1,1.38-3.37A4.45,4.45,0,0,1,233,390.08Zm13.09,4.56H233a.21.21,0,0,0-.24.24v10.95ZM234.72,410h13.1a.21.21,0,0,0,.24-.24V398.79Z" style="fill:#f2f2f2"/><path d="M261.33,390.08h14.86a4.69,4.69,0,0,1,4.69,4.7v5.44a4.68,4.68,0,0,1-4.69,4.69H261.33q-.24,0-.24.21v4.76a.21.21,0,0,0,.24.24h19.55v4.45H256.63v-9.45a4.71,4.71,0,0,1,4.7-4.7h14.86c.16,0,.24-.06.24-.2v-5.44a.21.21,0,0,0-.24-.24H261.33a.21.21,0,0,0-.24.24v1.83h-4.46v-1.83a4.71,4.71,0,0,1,4.7-4.7Z" style="fill:#f2f2f2"/><path d="M289.56,390.08h14.86a4.71,4.71,0,0,1,4.7,4.7v5.44a4.69,4.69,0,0,1-4.7,4.69H289.56q-.24,0-.24.21v4.76a.21.21,0,0,0,.24.24h19.56v4.45H284.86v-9.45a4.71,4.71,0,0,1,4.7-4.7h14.86c.16,0,.24-.06.24-.2v-5.44a.21.21,0,0,0-.24-.24H289.56a.21.21,0,0,0-.24.24v1.83h-4.46v-1.83a4.71,4.71,0,0,1,4.7-4.7Z" style="fill:#f2f2f2"/><path d="M350.93,343.38a13.2,13.2,0,0,1,3,8.54v8.39a13.54,13.54,0,0,1-13.54,13.55H315.35a13.32,13.32,0,0,1-8.59-3,5.66,5.66,0,0,1-5,3h-8.16a5.67,5.67,0,0,1-4.34-2l-10.09-12h-5.08v8.33a5.66,5.66,0,0,1-5.66,5.67h-7.49a5.61,5.61,0,0,1-3.2-1,5.61,5.61,0,0,1-3.2,1H247a5.67,5.67,0,0,1-5.67-5.67v-8.05H226.85v8.05a5.67,5.67,0,0,1-5.67,5.67H213.7a5.55,5.55,0,0,1-3.34-1.1,5.56,5.56,0,0,1-3.35,1.1h-7.54a5.67,5.67,0,0,1-5.67-5.67V353.82l-5.47,6.51a5.68,5.68,0,0,1-8.68,0l-5.52-6.56v14.41a5.67,5.67,0,0,1-5.67,5.67H161a5.67,5.67,0,0,1-5.67-5.67V327.37A5.67,5.67,0,0,1,161,321.7h8.17a5.66,5.66,0,0,1,4.34,2l10.5,12.5,10.46-12.49a5.68,5.68,0,0,1,4.35-2H207a5.65,5.65,0,0,1,5.29,3.66,13.23,13.23,0,0,1,9.28-3.66h25a13.38,13.38,0,0,1,9.13,3.49,5.67,5.67,0,0,1,5.21-3.43H293.8a13.31,13.31,0,0,1,9.62,4,13.45,13.45,0,0,1,1.13,1.28,14.12,14.12,0,0,1,1.21-1.37,13.26,13.26,0,0,1,9.59-4h25.06A13.55,13.55,0,0,1,354,335.25v3.12A5.65,5.65,0,0,1,350.93,343.38Z" style="fill:#221e4c"/><path d="M184,345.06l14.8-17.69H207v40.82h-7.54V338.25L184,356.68l-15.53-18.43v29.94H161V327.37h8.16Z" style="fill:#fff"/><path d="M221.57,327.37h25a7.67,7.67,0,0,1,5.62,2.3,7.54,7.54,0,0,1,2.32,5.58v32.94H247V354.47h-25.8v13.72h-7.48V335.25a7.85,7.85,0,0,1,7.88-7.88Zm-.4,19.61H247V335.25a.35.35,0,0,0-.4-.4h-25a.36.36,0,0,0-.4.4Z" style="fill:#fff"/><path d="M301.74,335.31v11a7.94,7.94,0,0,1-7.94,7.88h-2.21l10.15,12.08v1.93h-8.17l-11.79-14H268.4v14h-7.48V327.43H293.8a7.94,7.94,0,0,1,7.94,7.88ZM268.8,346.7h25a.35.35,0,0,0,.4-.4v-11a.35.35,0,0,0-.4-.4h-25a.35.35,0,0,0-.4.4v11A.35.35,0,0,0,268.8,346.7Z" style="fill:#fff"/><path d="M348.28,335.25v3.12h-7.54v-3.12c0-.26-.11-.4-.34-.4H315.34a.36.36,0,0,0-.4.4v8.39a.36.36,0,0,0,.4.4H340.4a7.87,7.87,0,0,1,7.88,7.88v8.39a7.89,7.89,0,0,1-7.88,7.88H315.34a7.85,7.85,0,0,1-7.88-7.88v-3.12h7.48v3.12a.35.35,0,0,0,.4.39H340.4c.23,0,.34-.13.34-.39v-8.39c0-.27-.11-.4-.34-.4H315.34a7.85,7.85,0,0,1-7.88-7.88v-8.39a7.85,7.85,0,0,1,7.88-7.88H340.4a7.89,7.89,0,0,1,7.88,7.88Z" style="fill:#fff"/></svg>