<?xml version="1.0" encoding="utf-8"?>
<!-- Generator: Adobe Illustrator 22.1.0, SVG Export Plug-In . SVG Version: 6.00 Build 0)  -->
<svg version="1.1" id="Layer_1" xmlns="http://www.w3.org/2000/svg" xmlns:xlink="http://www.w3.org/1999/xlink" x="0px" y="0px"
	 viewBox="0 0 841.9 570.6" style="enable-background:new 0 0 841.9 570.6;" xml:space="preserve">
<style type="text/css">
	.st0{fill:url(#SVGID_1_);}
	.st1{fill:url(#SVGID_2_);}
	.st2{fill:url(#SVGID_3_);}
	.st3{fill:url(#SVGID_4_);}
	.st4{fill:url(#SVGID_5_);}
	.st5{fill:url(#SVGID_6_);}
	.st6{fill:url(#SVGID_7_);}
	.st7{fill:url(#SVGID_8_);}
	.st8{fill:url(#SVGID_9_);}
	.st9{fill:url(#SVGID_10_);}
	.st10{fill:#EE2A7B;}
	.st11{fill:url(#SVGID_11_);}
</style>
<linearGradient id="SVGID_1_" gradientUnits="userSpaceOnUse" x1="275.16" y1="302.84" x2="571.49" y2="6.51" gradientTransform="matrix(1 0 0 1 0 71.3)">
	<stop  offset="0" style="stop-color:#EE2A7B"/>
	<stop  offset="1" style="stop-color:#091433"/>
</linearGradient>
<circle class="st0" cx="420.9" cy="228.4" r="183.2"/>
<linearGradient id="SVGID_2_" gradientUnits="userSpaceOnUse" x1="269.8043" y1="237.2414" x2="380.8043" y2="-100.7586" gradientTransform="matrix(1 0 0 1 0 71.3)">
	<stop  offset="0" style="stop-color:#EE2A7B"/>
	<stop  offset="1" style="stop-color:#091433"/>
</linearGradient>
<path class="st1" d="M250.2,294.9L296,184c0,0-14,64.3,12,44.5c17.5-13.4,62.5-116,90.1-181.7c-8.8,1.1-17.6,2.8-26.2,5.2
	C345.8,107.4,311,175.2,311,175.2s12-74.9-16-24.6c-18.6,33.4-40.7,84.4-53.4,114.9C243.6,275.5,246.5,285.4,250.2,294.9z"/>
<linearGradient id="SVGID_3_" gradientUnits="userSpaceOnUse" x1="349.9022" y1="263.5508" x2="460.9023" y2="-74.4493" gradientTransform="matrix(1 0 0 1 0 71.3)">
	<stop  offset="0" style="stop-color:#EE2A7B"/>
	<stop  offset="1" style="stop-color:#091433"/>
</linearGradient>
<path class="st2" d="M340.1,392.8C358,339,398.7,221.5,426,175.2c26.6-45.1,60.9-90.2,77-110.6c-3.4-1.7-6.9-3.3-10.5-4.9
	C473.7,92.1,442,144,431,146.6c-11.6,2.7,21.1-60,39.8-94.5c-5.6-1.6-11.3-2.9-17.1-4c-5.8,19.9-13,41.5-17.7,44.1
	c-5.1,2.8-0.8-23.2,3.8-46.1c-3.5-0.4-7.1-0.6-10.7-0.8c-10.4,46.4-30.8,129.8-49.1,163s-70,101.8-98.5,138.9
	c2.4,2.8,4.8,5.5,7.4,8.1c17.3-24.4,40.5-54.8,52.1-60c14-6.3-6.8,51.2-20.6,86.2C326.7,385.7,333.3,389.5,340.1,392.8z"/>
<linearGradient id="SVGID_4_" gradientUnits="userSpaceOnUse" x1="437.0803" y1="292.1801" x2="548.0803" y2="-45.8199" gradientTransform="matrix(1 0 0 1 0 71.3)">
	<stop  offset="0" style="stop-color:#EE2A7B"/>
	<stop  offset="1" style="stop-color:#091433"/>
</linearGradient>
<path class="st3" d="M436.2,411c9.8-52.5,31.3-160.8,49.8-207.7c17.2-43.4,44-86.9,58.9-109.7c-5.8-5.3-11.9-10.3-18.3-14.8
	c-15.2,33.6-66.1,147.7-82.9,207.2c-12.6,44.6-22.3,94.7-27.8,125.5c1.7,0,3.3,0.1,5,0.1C426.1,411.6,431.1,411.4,436.2,411z"/>
<linearGradient id="SVGID_5_" gradientUnits="userSpaceOnUse" x1="393.4566" y1="277.8489" x2="504.4566" y2="-60.1512" gradientTransform="matrix(1 0 0 1 0 71.3)">
	<stop  offset="0" style="stop-color:#EE2A7B"/>
	<stop  offset="1" style="stop-color:#091433"/>
</linearGradient>
<path class="st4" d="M439,203.3c-10.9,6.2-56.1,139.7-75.8,199c7.7,2.5,15.6,4.6,23.6,6.1C406.9,342.2,449.8,197.1,439,203.3z"/>
<linearGradient id="SVGID_6_" gradientUnits="userSpaceOnUse" x1="500.768" y1="313.0893" x2="611.768" y2="-24.9106" gradientTransform="matrix(1 0 0 1 0 71.3)">
	<stop  offset="0" style="stop-color:#EE2A7B"/>
	<stop  offset="1" style="stop-color:#091433"/>
</linearGradient>
<path class="st5" d="M537,370.1c4.9-58.9,16.2-167.7,38.1-240.7c-4.6-7.2-9.8-14.1-15.4-20.5c-14.3,51.2-42.1,148-60.7,198.6
	c-15.8,43-27.5,78-34.3,98.8c8.2-2,16.2-4.6,24-7.7c8.5-35.1,25.7-101.8,37.3-116.3s-1,59.9-8.8,101.9
	C524.1,380,530.7,375.3,537,370.1z"/>
<linearGradient id="SVGID_7_" gradientUnits="userSpaceOnUse" x1="535.6993" y1="324.5598" x2="646.6993" y2="-13.4402" gradientTransform="matrix(1 0 0 1 0 71.3)">
	<stop  offset="0" style="stop-color:#EE2A7B"/>
	<stop  offset="1" style="stop-color:#091433"/>
</linearGradient>
<path class="st6" d="M596.5,176.1c-6.8,27.2-16.1,66.8-18.5,89.4c-2.3,21,12.7-11.4,26-43C603.5,206.8,601,191.2,596.5,176.1z"/>
<linearGradient id="SVGID_8_" gradientUnits="userSpaceOnUse" x1="420.95" y1="378.1" x2="420.95" y2="538.62" gradientTransform="matrix(1 0 0 1 0 71.3)">
	<stop  offset="0" style="stop-color:#EE2A7B"/>
	<stop  offset="1" style="stop-color:#091433"/>
</linearGradient>
<polygon class="st7" points="0,468.2 77,460.6 101.7,468.2 171.7,464.4 184.3,468.2 199.7,460.6 224.3,464.4 229.7,468.2 
	296.3,464.4 325,468.2 361.7,460.6 366.9,452.9 378.3,456.7 383.7,464.4 509,472.8 527,467.4 532.3,469 593,456.7 603,467.4 
	687,472.8 706.3,468.2 739,462.8 746.3,468.2 759.7,462.8 769,468.2 841.9,462.8 841.9,570.6 0,570.6 "/>
<linearGradient id="SVGID_9_" gradientUnits="userSpaceOnUse" x1="420.95" y1="505.47" x2="420.95" y2="280.6" gradientTransform="matrix(1 0 0 1 0 71.3)">
	<stop  offset="0" style="stop-color:#000018"/>
	<stop  offset="0.11" style="stop-color:#00001B"/>
	<stop  offset="0.23" style="stop-color:#090022"/>
	<stop  offset="0.37" style="stop-color:#20082D"/>
	<stop  offset="0.51" style="stop-color:#3B143A"/>
	<stop  offset="0.66" style="stop-color:#5D1E4A"/>
	<stop  offset="0.81" style="stop-color:#8F275D"/>
	<stop  offset="0.96" style="stop-color:#D22A73"/>
	<stop  offset="1" style="stop-color:#EE2A7B"/>
</linearGradient>
<polygon class="st8" points="769,474.3 759.7,469.3 746.3,474.3 739,469.3 706.3,474.3 687,478.6 655.2,488.3 700.1,497.3 
	664.2,497.3 601.1,510.8 563,511.7 676.7,520.3 541.1,530.3 554.7,534.3 491.7,547.3 355.1,547.3 365.7,541.3 258.1,531.3 
	311,520.3 286.2,520.3 271,511.7 278.7,502.3 207.3,492.3 241.6,483.3 200.7,474.3 184.3,474.3 171.7,470.7 101.7,474.3 77,467.1 
	0,474.3 0,570.6 841.9,570.6 841.9,469.3 "/>
<linearGradient id="SVGID_10_" gradientUnits="userSpaceOnUse" x1="439.85" y1="416.72" x2="439.85" y2="402.7" gradientTransform="matrix(1 0 0 1 0 71.3)">
	<stop  offset="0" style="stop-color:#000018"/>
	<stop  offset="1" style="stop-color:#091433"/>
</linearGradient>
<polygon class="st9" points="398.1,474.3 365.7,477.6 392.2,481.3 456,484.3 448,487.8 499.5,483.8 514,481.1 461.1,477.6 "/>
<path class="st10" d="M376.9,362.2c1,1,4.3,2.2,4.3,2.2l3.3,4.5c0,0,1.3,8.8,2.8,10.8s5.5,2.4,5.5,2.4s-6,28-5.5,29.3s0,7.8,0,7.8
	s-5.8,15.8-5.8,18.2s3.7,6.1,3.7,6.1s-5.3,21.9-5,23.3s2.3,3.4,2.3,3.4c-1,2.4-1.6,5-1.9,7.6H400l4-14c1.7-1.2,2.9-3,3.3-5.1
	c0.6-3.4,3.3-16.2,3.3-16.2l5-14.5l5.3-28.6l5.3,28.6l5,14.5c0,0,2.7,12.8,3.3,16.2c0.4,2,1.6,3.9,3.3,5.1l4,14H461
	c-0.2-2.6-0.9-5.2-1.9-7.6c0,0,2-2,2.3-3.4s-5-23.3-5-23.3s3.7-3.7,3.7-6.1s-5.8-18.2-5.8-18.2s-0.5-6.4,0-7.8s-5.5-29.3-5.5-29.3
	s4-0.3,5.5-2.4s2.8-10.8,2.8-10.8l3.3-4.5c0,0,3.3-1.2,4.3-2.2s0.7-3,0.7-3s12-9.8,12-13.8s-7-20.9-7-20.9v-5.7
	c0-1.7-9.7-13.5-9.7-13.5l-2.3-9.8l-8.7-1.9l-2.5-8.2h-2.5c5.8-13.3-0.2-28.7-13.5-34.5c-13.3-5.8-28.7,0.2-34.5,13.5
	c-2.9,6.7-2.9,14.3,0,21h-2.5l-2.5,8.2l-8.7,1.9l-2.3,9.8c0,0-9.7,11.8-9.7,13.5v5.7c0,0-7,16.8-7,20.9s12,13.8,12,13.8
	C375.9,360.3,376.3,361.3,376.9,362.2z"/>
<linearGradient id="SVGID_11_" gradientUnits="userSpaceOnUse" x1="421.05" y1="489.09" x2="421.05" y2="244.6" gradientTransform="matrix(1 0 0 1 0 71.3)">
	<stop  offset="0" style="stop-color:#000018"/>
	<stop  offset="1" style="stop-color:#091433"/>
</linearGradient>
<path class="st11" d="M469.5,327.6c-0.4,0.2-0.9,0.3-1.4,0.3c-1-0.2-1.9-0.4-2.8-0.8c0,0,1.5-0.1,2.1-0.2c0.3-0.1,1-0.3,1.7-0.6
	c-0.2-0.6-0.4-1-0.5-1.4c-1,0-2-0.1-3-0.3c-1.1-0.6-2.2-1.4-3.1-2.3c0.9,0.3,1.8,0.5,2.7,0.7c1.1,0.1,2.1,0.1,3.2,0v-4.2
	c0-1.3-6-9.2-8.3-12.1l-6.5,2.7l5.3-5.1l-1.9-8.4l-8.3-1.9l-2.4-8h-2.4c1.4-3.3,2.1-6.8,2.1-10.4c0-14.4-11.2-26-24.9-26
	s-24.9,11.6-24.9,26c0,3.6,0.7,7.1,2.1,10.4h-2.4l-2.4,8l-8.3,1.9l-1.9,8.4l5.3,5.1l-6.5-2.7c-2.3,2.9-8.3,10.8-8.3,12.1v4.2h3.2
	c0.9-0.2,1.8-0.4,2.7-0.7c-0.9,0.9-2,1.7-3.1,2.3c-1,0.2-2,0.3-3,0.3c-0.1,0.3-0.3,0.8-0.5,1.4c0.7,0.3,1.4,0.5,1.7,0.6
	c0.6,0.1,2.1,0.2,2.1,0.2c-0.9,0.4-1.8,0.6-2.8,0.8c-0.5-0.1-0.9-0.2-1.4-0.3c-1.9,5-5.5,14.6-5.5,17.5s5.8,8.5,9.1,11.6l10.9,1.2
	c-1.4,0.4-2.8,0.6-4.2,0.8c-1.5,0.1-3,0.1-4.5,0c0,0-0.3,2,0.6,3c1.3,0.9,2.6,1.7,4.1,2.2l3.1,4.3l3.2-1.7l-2.7,3.9
	c0.5,2.7,1.4,7.2,2.4,8.6c1.4,2,5.2,2.3,5.2,2.3s-5.7,27.5-5.2,28.8c0.2,2,0.3,4,0.1,6l4.4-1.7l-4.7,3.8c-1,2.7-5.4,15.3-5.4,17.4
	v0.2l3.2-1.1l-2.8,2.6c0.5,0.9,1,1.8,1.6,2.6l4.3-2.1l-2.9,3.7c0,0-5.1,21.5-4.8,22.9c0.2,0.7,0.6,1.4,1.1,2
	c0.8-0.3,1.5-0.6,2.2-1.1c0.4-0.3,2.5-2.4,2.5-2.4s-1.3,3.2-1.9,3.7c-0.5,0.4-1.1,0.7-1.7,1l0,0c-1.2,3.2-1.8,6.5-1.9,9.9h17.8
	l4.4-16.2c1.6-1.2,2.8-3,3.2-5c0.7-3.3,3.2-15.9,3.2-15.9l4.8-14.3l5.1-28.2l5.1,28.2l4.8,14.3c0,0,2.5,12.6,3.2,15.9
	c0.4,2,1.6,3.8,3.2,5l4.4,16.2h17.8c-0.1-3.4-0.7-6.7-1.9-9.9l0,0c-0.6-0.3-1.2-0.6-1.7-1c-0.6-0.5-1.9-3.7-1.9-3.7
	c0.8,0.8,1.6,1.6,2.5,2.4c0.3,0.2,1.4,0.7,2.2,1.1c0.5-0.6,0.9-1.3,1.1-2c0.3-1.3-4.8-22.9-4.8-22.9l-2.9-3.7l4.3,2.1
	c0.6-0.8,1.2-1.7,1.6-2.6l-2.7-2.7l3.2,1.1v-0.2c0-2.1-4.4-14.6-5.4-17.4l-4.7-3.8l4.4,1.7c-0.2-2-0.1-4,0.1-6
	c0.5-1.3-5.2-28.8-5.2-28.8s3.8-0.3,5.2-2.3c1-1.4,1.9-5.9,2.4-8.6l-2.7-3.9l3.2,1.7l3.1-4.3c0,0,3.2-1.2,4.1-2.2s0.6-3,0.6-3
	c-1.5,0.1-3,0.1-4.5,0c-1.4-0.2-2.8-0.4-4.2-0.8l10.9-1.2c3.3-3,9.1-8.7,9.1-11.6S471.4,332.5,469.5,327.6z"/>
</svg>
