<svg xmlns="http://www.w3.org/2000/svg" xmlns:xlink="http://www.w3.org/1999/xlink" viewBox="0 0 283.46 198.43"><defs><style>.cls-1{fill:url(#linear-gradient);}</style><linearGradient id="linear-gradient" x1="141.73" y1="26.95" x2="141.73" y2="238.88" gradientTransform="matrix(1, 0, 0, -1, 0, 198.43)" gradientUnits="userSpaceOnUse"><stop offset="0" stop-color="#fc3"/><stop offset="1" stop-color="#f63"/></linearGradient></defs><title>aires_travel-logo</title><g id="Layer_2" data-name="Layer 2"><g id="Layer_1-2" data-name="Layer 1"><path id="aires_travel-logo" class="cls-1" d="M283.46,198.43,168.56,0H114.84L0,198.43l39.54-19.92V172a5.18,5.18,0,0,1,5.2-5.19h.62A5.17,5.17,0,0,1,50.57,172V173L77,159.66v-7.9a5.18,5.18,0,0,1,5.2-5.13h.62A5.16,5.16,0,0,1,88,151.76v2.33l31.06-15.58c.13-8.59.38-17.12.62-25.64.25-7.34.5-14.9,3.65-21.81s9.72-13.16,18.32-14.65c8.6,1.49,15.17,7.78,18.32,14.65s3.4,14.47,3.65,21.81c.24,8.52.49,17,.62,25.57l31.06,15.65v-2.33a5.18,5.18,0,0,1,5.21-5.13h.62a5.15,5.15,0,0,1,5.2,5.13v7.9L232.77,173V172a5.19,5.19,0,0,1,5.21-5.19h.62a5.16,5.16,0,0,1,5.2,5.19v6.5Z"/></g></g></svg>